<?xml version="1.0" encoding="utf-8"?>
<!-- Generator: Adobe Illustrator 25.2.3, SVG Export Plug-In . SVG Version: 6.00 Build 0)  -->
<svg version="1.1" id="Calque_1" xmlns="http://www.w3.org/2000/svg" xmlns:xlink="http://www.w3.org/1999/xlink" x="0px" y="0px"
	 viewBox="0 0 500 500" style="enable-background:new 0 0 500 500;" xml:space="preserve">
<style type="text/css">
	.st0{fill:#673AB7;}
	.st1{fill:#FFFFFF;}
</style>
<rect class="st0" width="500" height="500"/>
<g>
	<path class="st1" d="M268.3,144.9h-6.3c-18.8-56.3-29.5-79.5-60.8-79.5h-4.5v227.9h29.5v7.1h-126v-7.1h29.5V65.4h-4.5
		c-31.3,0-42.9,25.9-60.8,79.5h-7.1L61,58.2h204.7L268.3,144.9z"/>
	<path class="st1" d="M356.8,131.5c58.1,0,85.8,27.7,85.8,83.1c0,57.2-25.9,88.5-87.6,88.5c-58.1,0-87.6-31.3-87.6-84.9
		C266.5,161.9,300.5,131.5,356.8,131.5z M375.6,202.1c0-37.5-0.9-64.3-20.6-64.3c-21.4,0-22.3,26.8-22.3,66.1v26.8
		c0,40.2,0.9,66.1,21.4,66.1c19.7,0,20.6-20.6,20.6-65.2v-29.5H375.6z"/>
</g>
<g>
	<path class="st1" d="M100.7,440.2H56.9v-2.8h10.4V335H56.9v-3.2h47.8c38.3,0,59.4,13.6,59.4,52.2
		C164.1,427.8,137.8,440.2,100.7,440.2z M103.1,437c20.7,0,29.1-13.6,29.1-47.8V380c0-37.5-9.6-45.4-31.1-45.4h-3.6v102h5.6V437z"/>
	<path class="st1" d="M213.1,364.9c25.9,0,38.3,12.4,38.3,37.1c0,25.5-11.6,39.5-39.1,39.5c-25.9,0-39.1-13.9-39.1-37.9
		C173.3,378.4,188.4,364.9,213.1,364.9z M221.9,396.3c0-16.7-0.4-28.7-9.2-28.7c-9.6,0-10,12-10,29.5v12c0,17.9,0.4,29.5,9.6,29.5
		c8.8,0,9.2-9.2,9.2-29.1v-13.2H221.9z"/>
	<path class="st1" d="M293.2,366.5v14.3c2.8-7.6,7.6-15.9,23.1-15.9c14.3,0,23.9,7.2,23.9,25.9v46.6h8.8v2.8h-43.8v-2.8h6.4v-50.2
		c0-13.2-2-14.7-5.6-14.7c-6.4,0-12.4,9.6-12.4,22.3v42.6h6.8v2.8h-43.8v-2.8h8.4v-67.8h-8.4v-2.8h36.7V366.5z"/>
	<path class="st1" d="M353,368c10.4-6.8,14.3-13.2,14.3-18.7c0-3.6-2.4-5.2-4-5.6l-6.4,6c-3.6-1.2-8.4-4.8-8.4-10.8
		c0-6.8,5.6-11.2,12.4-11.2c8.4,0,13.9,5.6,13.9,14.7c0,11.6-8.8,20.7-20.3,27.9L353,368z"/>
	<path class="st1" d="M391.3,369.2h-8.4v-2.8h8.4v-19.9l28.7-7.2v27.1h19.9v2.8H420v52.2c0,9.2,1.2,13.9,6.8,13.9
		c7.6,0,12-6.8,13.6-17.1l2.8,0.4c-1.2,12-6.4,23.1-25.5,23.1c-15.1,0-26.3-4.4-26.3-23.5L391.3,369.2L391.3,369.2z"/>
</g>
</svg>
