<?xml version="1.0" encoding="utf-8"?>
<!-- Generator: Adobe Illustrator 25.2.3, SVG Export Plug-In . SVG Version: 6.00 Build 0)  -->
<svg version="1.1" id="Calque_1" xmlns="http://www.w3.org/2000/svg" xmlns:xlink="http://www.w3.org/1999/xlink" x="0px" y="0px"
	 viewBox="0 0 211.5 29.4" style="enable-background:new 0 0 211.5 29.4;" xml:space="preserve">
<style type="text/css">
	.st0{fill:#FFFFFF;}
</style>
<g>
	<path class="st0" d="M23.6,11.7h-0.7c-2.1-6.3-3.3-8.9-6.8-8.9h-0.5v25.5h3.3v0.8H4.8v-0.8h3.3V2.8H7.6c-3.5,0-4.8,2.9-6.8,8.9H0
		l0.4-9.7h22.9L23.6,11.7z"/>
	<path class="st0" d="M33.5,10.2c6.5,0,9.6,3.1,9.6,9.3c0,6.4-2.9,9.9-9.8,9.9c-6.5,0-9.8-3.5-9.8-9.5
		C23.4,13.6,27.2,10.2,33.5,10.2z M35.6,18.1c0-4.2-0.1-7.2-2.3-7.2c-2.4,0-2.5,3-2.5,7.4v3c0,4.5,0.1,7.4,2.4,7.4
		c2.2,0,2.3-2.3,2.3-7.3V18.1z"/>
	<path class="st0" d="M62.5,29.1h-11v-0.7h2.6V2.7h-2.6V1.9h12c9.6,0,14.9,3.4,14.9,13.1C78.4,26,71.8,29.1,62.5,29.1z M63.1,28.3
		c5.2,0,7.3-3.4,7.3-12V14c0-9.4-2.4-11.4-7.8-11.4h-0.9v25.6H63.1z"/>
	<path class="st0" d="M90.7,10.2c6.5,0,9.6,3.1,9.6,9.3c0,6.4-2.9,9.9-9.8,9.9c-6.5,0-9.8-3.5-9.8-9.5
		C80.7,13.6,84.5,10.2,90.7,10.2z M92.9,18.1c0-4.2-0.1-7.2-2.3-7.2c-2.4,0-2.5,3-2.5,7.4v3c0,4.5,0.1,7.4,2.4,7.4
		c2.2,0,2.3-2.3,2.3-7.3V18.1z"/>
	<path class="st0" d="M110.8,10.6v3.6c0.7-1.9,1.9-4,5.8-4c3.6,0,6,1.8,6,6.5v11.7h2.2v0.7h-11v-0.7h1.6V15.8c0-3.3-0.5-3.7-1.4-3.7
		c-1.6,0-3.1,2.4-3.1,5.6v10.7h1.7v0.7h-11v-0.7h2.1v-17h-2.1v-0.7H110.8z"/>
	<path class="st0" d="M125.8,11c2.6-1.7,3.6-3.3,3.6-4.7c0-0.9-0.6-1.3-1-1.4l-1.6,1.5c-0.9-0.3-2.1-1.2-2.1-2.7
		c0-1.7,1.4-2.8,3.1-2.8c2.1,0,3.5,1.4,3.5,3.7c0,2.9-2.2,5.2-5.1,7L125.8,11z"/>
	<path class="st0" d="M135.4,11.3h-2.1v-0.7h2.1v-5l7.2-1.8v6.8h5v0.7h-5v13.1c0,2.3,0.3,3.5,1.7,3.5c1.9,0,3-1.7,3.4-4.3l0.7,0.1
		c-0.3,3-1.6,5.8-6.4,5.8c-3.8,0-6.6-1.1-6.6-5.9V11.3z"/>
	<path class="st0" d="M165,0v28.4h2.2v0.7h-11.5v-0.7h2.1V0.7h-2.3V0H165z"/>
	<path class="st0" d="M177.2,10.6v17.7h2.2v0.7h-11.5v-0.7h2.1v-17h-2.3v-0.7H177.2z M173.8,0.7c2.4,0,3.8,1.2,3.8,3.6
		c0,2.1-1.1,3.6-3.9,3.6c-3.1,0-3.9-2-3.9-3.6C169.8,2.4,170.8,0.7,173.8,0.7z"/>
	<path class="st0" d="M181.1,22.5h0.5c1.4,4.7,3.8,6.1,7,6.1c2.9,0,4-1,4-2.5c0-1.7-1.9-2.1-4.8-2.9c-3.1-0.9-6.5-2.1-6.5-6.4
		c0-4,2.7-6.5,6.8-6.5c1.7,0,2.9,0.4,3.9,0.9c0.5,0.2,0.6,0.3,1.1,0.3c0.6,0,0.9-0.3,1.4-1.3h0.4v5.9h-0.5c-1.4-3.6-3.4-5-6.1-5
		c-2.6,0-3.6,1-3.6,2.2c0,1.8,2.3,2.2,4.9,2.9c3.1,0.8,6.5,2.1,6.5,6.6c0,4.4-2.9,6.6-7.2,6.6c-1.9,0-3.2-0.4-4.6-1.1
		c-0.2-0.2-0.6-0.3-0.7-0.3c-0.5,0-1,0.3-1.7,1.4h-0.5V22.5z"/>
	<path class="st0" d="M198.5,11.3h-2.1v-0.7h2.1v-5l7.2-1.8v6.8h5v0.7h-5v13.1c0,2.3,0.3,3.5,1.7,3.5c1.9,0,3-1.7,3.4-4.3l0.7,0.1
		c-0.3,3-1.6,5.8-6.4,5.8c-3.8,0-6.6-1.1-6.6-5.9V11.3z"/>
</g>
</svg>
